<svg width="140" height="42" viewBox="0 0 140 42" fill="none" xmlns="http://www.w3.org/2000/svg">
<g clip-path="url(#clip0)">
<path d="M134.969 0H5.03147C2.25267 0 0 2.25267 0 5.03147V36.4761C0 39.2549 2.25267 41.5075 5.03147 41.5075H134.969C137.747 41.5075 140 39.2549 140 36.4761V5.03147C140 2.25267 137.747 0 134.969 0Z" fill="white"/>
<path fill-rule="evenodd" clip-rule="evenodd" d="M30.6484 20.0102C30.6179 16.5882 33.4242 14.9234 33.5525 14.8459C31.9632 12.5069 29.4998 12.1873 28.6341 12.1618C26.5651 11.942 24.5582 13.4115 23.5043 13.4115C22.4293 13.4115 20.8063 12.183 19.0571 12.2191C16.8062 12.2542 14.7004 13.5697 13.5455 15.6125C11.162 19.7776 12.9396 25.8985 15.2231 29.2653C16.3654 30.9152 17.7002 32.7552 19.4473 32.6905C21.1566 32.6204 21.795 31.5905 23.8577 31.5905C25.9014 31.5905 26.501 32.6905 28.2828 32.648C30.1172 32.6204 31.2721 30.9928 32.3745 29.328C33.6945 27.4402 34.2246 25.5768 34.2457 25.4813C34.2036 25.4675 30.6841 24.1116 30.6484 20.0102Z" fill="#2F3136"/>
<path fill-rule="evenodd" clip-rule="evenodd" d="M27.2824 9.94715C28.2017 8.78667 28.8307 7.20787 28.6561 5.60571C27.3255 5.66517 25.6615 6.53473 24.7033 7.66973C23.8555 8.66988 23.0982 10.3092 23.2938 11.8508C24.7885 11.9634 26.3231 11.0896 27.2824 9.94715Z" fill="#2F3136"/>
<path fill-rule="evenodd" clip-rule="evenodd" d="M55.4056 32.4538H53.0168L51.7083 28.3035H47.1602L45.9138 32.4538H43.5881L48.0953 18.3242H50.8784L55.4056 32.4538ZM51.3139 26.5622L50.1306 22.8738C50.0054 22.4958 49.7698 21.6082 49.4248 20.2109H49.3827C49.2439 20.8119 49.0219 21.6995 48.718 22.8738L47.5546 26.5622H51.3139Z" fill="#2F3136"/>
<path fill-rule="evenodd" clip-rule="evenodd" d="M66.9738 27.2343C66.9738 28.9671 66.5078 30.3367 65.5749 31.3422C64.7397 32.2372 63.7015 32.6842 62.4635 32.6842C61.1266 32.6842 60.1653 32.2032 59.5815 31.2381V36.584H57.339V25.6141C57.339 24.5258 57.3106 23.4099 57.2559 22.2654H59.2281L59.3532 23.8814H59.3953C60.1432 22.6636 61.2781 22.0552 62.8012 22.0552C63.9918 22.0552 64.9858 22.5298 65.781 23.48C66.5752 24.4324 66.9738 25.6831 66.9738 27.2343ZM64.6892 27.3171C64.6892 26.3255 64.4683 25.5079 64.0245 24.8645C63.5396 24.1946 62.8885 23.858 62.0722 23.858C61.519 23.858 61.0162 24.0449 60.5671 24.4144C60.1169 24.7849 59.8223 25.2701 59.6846 25.8721C59.6151 26.1514 59.5804 26.3796 59.5804 26.5601V28.261C59.5804 29 59.8055 29.6253 60.2557 30.1371C60.7059 30.6467 61.2907 30.9026 62.0102 30.9026C62.8548 30.9026 63.5122 30.5724 63.9824 29.9173C64.4536 29.2601 64.6892 28.3937 64.6892 27.3171Z" fill="#2F3136"/>
<path fill-rule="evenodd" clip-rule="evenodd" d="M78.5828 27.2343C78.5828 28.9671 78.1168 30.3367 77.1838 31.3422C76.3476 32.2372 75.3105 32.6842 74.0714 32.6842C72.7356 32.6842 71.7742 32.2032 71.1894 31.2381V36.584H68.9469V25.6141C68.9469 24.5258 68.9185 23.4099 68.8638 22.2654H70.836L70.9611 23.8814H71.0032C71.75 22.6636 72.885 22.0552 74.4091 22.0552C75.5987 22.0552 76.5938 22.5298 77.39 23.48C78.1831 24.4324 78.5828 25.6831 78.5828 27.2343ZM76.2971 27.3171C76.2971 26.3255 76.0752 25.5079 75.6313 24.8645C75.1475 24.1946 74.4974 23.858 73.6812 23.858C73.1279 23.858 72.6252 24.0449 72.1739 24.4144C71.7248 24.7849 71.4303 25.2701 71.2925 25.8721C71.2241 26.1514 71.1873 26.3796 71.1873 26.5601V28.261C71.1873 29 71.4134 29.6253 71.8615 30.1371C72.3117 30.6457 72.8965 30.9026 73.6181 30.9026C74.4638 30.9026 75.1212 30.5724 75.5903 29.9173C76.0615 29.2601 76.2971 28.3937 76.2971 27.3171Z" fill="#2F3136"/>
<path fill-rule="evenodd" clip-rule="evenodd" d="M91.5625 28.4913C91.5625 29.6932 91.147 30.6711 90.3182 31.426C89.4073 32.2499 88.1356 32.6629 86.5053 32.6629C84.999 32.6629 83.7915 32.3699 82.8806 31.7827L83.3992 29.896C84.3826 30.4831 85.4629 30.7772 86.6388 30.7772C87.4845 30.7772 88.1419 30.584 88.611 30.2007C89.0823 29.8153 89.3189 29.3025 89.3189 28.6612C89.3189 28.0868 89.1233 27.6048 88.7362 27.213C88.3481 26.8233 87.7065 26.4581 86.8061 26.1247C84.3553 25.2021 83.1288 23.8515 83.1288 22.0774C83.1288 20.918 83.5622 19.9688 84.4258 19.2266C85.2904 18.4855 86.4369 18.115 87.8632 18.115C89.137 18.115 90.1983 18.339 91.0408 18.786L90.4781 20.6313C89.685 20.1981 88.7898 19.9815 87.7885 19.9815C86.9975 19.9815 86.3759 20.1779 85.9331 20.5687C85.5597 20.918 85.3693 21.3437 85.3693 21.8491C85.3693 22.4065 85.5849 22.8694 86.0151 23.2315C86.3874 23.567 87.0669 23.9312 88.0494 24.3219C89.2548 24.8124 90.1394 25.3836 90.7074 26.0398C91.2785 26.6959 91.5625 27.5145 91.5625 28.4913Z" fill="#2F3136"/>
<path fill-rule="evenodd" clip-rule="evenodd" d="M98.996 23.9641H96.5242V28.9107C96.5242 30.1689 96.9596 30.7964 97.8327 30.7964C98.2334 30.7964 98.5658 30.7624 98.8287 30.6913L98.8908 32.4102C98.449 32.5769 97.8674 32.6608 97.1479 32.6608C96.2612 32.6608 95.5702 32.3869 95.0695 31.8422C94.5709 31.2965 94.3216 30.3823 94.3216 29.0955V23.9599H92.8501V22.2611H94.3216V20.3956L96.5242 19.7246V22.2611H98.996V23.9641Z" fill="#2F3136"/>
<path fill-rule="evenodd" clip-rule="evenodd" d="M110.126 27.2757C110.126 28.8418 109.684 30.1275 108.797 31.133C107.87 32.1671 106.638 32.6842 105.101 32.6842C103.618 32.6842 102.439 32.1884 101.559 31.1967C100.68 30.205 100.24 28.9543 100.24 27.4456C100.24 25.8668 100.696 24.5736 101.6 23.5681C102.507 22.5627 103.729 22.0583 105.266 22.0583C106.748 22.0583 107.937 22.5563 108.838 23.5469C109.698 24.5099 110.126 25.7511 110.126 27.2757ZM107.802 27.3277C107.802 26.3945 107.602 25.5939 107.201 24.924C106.731 24.1149 106.057 23.7115 105.186 23.7115C104.289 23.7115 103.598 24.1149 103.13 24.924C102.727 25.5939 102.528 26.4083 102.528 27.3702C102.528 28.3045 102.727 29.1072 103.13 29.774C103.615 30.5841 104.291 30.9886 105.168 30.9886C106.024 30.9886 106.696 30.5745 107.183 29.7549C107.595 29.069 107.802 28.2631 107.802 27.3277Z" fill="#2F3136"/>
<path fill-rule="evenodd" clip-rule="evenodd" d="M117.419 24.2562C117.197 24.2147 116.959 24.1946 116.712 24.1946C115.923 24.1946 115.313 24.4929 114.884 25.096C114.511 25.6269 114.324 26.2979 114.324 27.108V32.4538H112.082V25.474C112.082 24.3007 112.06 23.2295 112.017 22.2665H113.97L114.052 24.2158H114.114C114.352 23.5459 114.724 23.0054 115.235 22.602C115.736 22.2367 116.274 22.0552 116.856 22.0552C117.063 22.0552 117.251 22.0711 117.417 22.0966L117.419 24.2562Z" fill="#2F3136"/>
<path fill-rule="evenodd" clip-rule="evenodd" d="M127.448 26.8774C127.448 27.283 127.422 27.6249 127.366 27.9041H120.64C120.664 28.9106 120.991 29.6814 121.615 30.2123C122.182 30.6858 122.916 30.9237 123.815 30.9237C124.811 30.9237 125.72 30.7644 126.537 30.4416L126.889 32.013C125.933 32.4324 124.805 32.6426 123.505 32.6426C121.94 32.6426 120.711 32.1776 119.817 31.2496C118.926 30.3206 118.478 29.0709 118.478 27.5081C118.478 25.9728 118.892 24.6934 119.726 23.6731C120.596 22.5837 121.773 22.0391 123.254 22.0391C124.709 22.0391 125.81 22.5837 126.557 23.6731C127.15 24.5363 127.448 25.6065 127.448 26.8774ZM125.31 26.2903C125.326 25.6182 125.178 25.0406 124.874 24.5501C124.486 23.9194 123.889 23.6051 123.088 23.6051C122.354 23.6051 121.758 23.912 121.303 24.5278C120.93 25.0172 120.708 25.6065 120.64 26.2881L125.31 26.2903Z" fill="#2F3136"/>
<path fill-rule="evenodd" clip-rule="evenodd" d="M50.2327 13.2671H49.0578L48.4151 11.2275H46.1799L45.5667 13.2671H44.4233L46.6385 6.32227H48.0059L50.2327 13.2671ZM48.2215 10.3717L47.6399 8.55828C47.5789 8.37248 47.4663 7.94035 47.2928 7.25022H47.2717C47.2002 7.54857 47.0982 7.98176 46.9446 8.55828L46.3735 10.3717H48.2215Z" fill="#2F3136"/>
<path fill-rule="evenodd" clip-rule="evenodd" d="M55.7717 8.26001L53.8931 13.2672H52.8212L51.0037 8.26001H52.188L53.0358 10.908C53.1789 11.3507 53.3009 11.7733 53.3924 12.1746H53.4229C53.5049 11.8147 53.627 11.3921 53.7795 10.908L54.6167 8.26001H55.7717Z" fill="#2F3136"/>
<path fill-rule="evenodd" clip-rule="evenodd" d="M59.7707 13.2671L59.6886 12.6906H59.6581C59.3215 13.1546 58.8314 13.3807 58.2087 13.3807C57.321 13.3807 56.6877 12.7522 56.6877 11.907C56.6877 10.6712 57.749 10.032 59.5866 10.032V9.93964C59.5866 9.2803 59.2395 8.9501 58.5558 8.9501C58.0657 8.9501 57.6365 9.07432 57.2599 9.32171L57.0359 8.59017C57.4956 8.30138 58.0667 8.15698 58.7409 8.15698C60.0368 8.15698 60.691 8.84711 60.691 10.2284V12.0727C60.691 12.578 60.7121 12.9698 60.7626 13.2682L59.7707 13.2671ZM59.6171 10.7731C58.3917 10.7731 57.7796 11.0725 57.7796 11.7828C57.7796 12.3084 58.0962 12.5653 58.5348 12.5653C59.0965 12.5653 59.6171 12.1332 59.6171 11.546V10.7731Z" fill="#2F3136"/>
<path fill-rule="evenodd" clip-rule="evenodd" d="M63.1461 7.43501C62.779 7.43501 62.4929 7.14621 62.4929 6.76505C62.4929 6.38389 62.7885 6.10571 63.1672 6.10571C63.5448 6.10571 63.8509 6.38389 63.8403 6.76505C63.8403 7.16745 63.5553 7.43501 63.1461 7.43501ZM62.616 8.25997H63.7183V13.2671H62.616V8.25997Z" fill="#2F3136"/>
<path fill-rule="evenodd" clip-rule="evenodd" d="M65.6768 5.9624H66.7791V13.2671H65.6768V5.9624Z" fill="#2F3136"/>
<path fill-rule="evenodd" clip-rule="evenodd" d="M71.4641 13.2672L71.381 12.6907H71.3515C71.0149 13.1547 70.5248 13.3808 69.9021 13.3808C69.0143 13.3808 68.3811 12.7523 68.3811 11.9071C68.3811 10.6713 69.4424 10.0321 71.28 10.0321V9.93972C71.28 9.28038 70.9329 8.95018 70.2492 8.95018C69.759 8.95018 69.3299 9.07441 68.9533 9.32179L68.7282 8.58919C69.1879 8.3004 69.759 8.15601 70.4332 8.15601C71.7291 8.15601 72.3844 8.84613 72.3844 10.2275V12.0717C72.3844 12.5771 72.4054 12.9689 72.4538 13.2672H71.4641ZM71.3105 10.7732C70.0851 10.7732 69.4729 11.0726 69.4729 11.7829C69.4729 12.3085 69.7895 12.5654 70.2281 12.5654C70.7898 12.5654 71.3105 12.1333 71.3105 11.5461V10.7732Z" fill="#2F3136"/>
<path fill-rule="evenodd" clip-rule="evenodd" d="M76.8494 13.3807C76.1457 13.3807 75.6261 13.0813 75.2885 12.4942H75.2675L75.2044 13.2671H74.2661C74.2956 12.8658 74.3061 12.4114 74.3061 11.9177V5.9624H75.4105V8.9926H75.4305C75.7576 8.43625 76.2877 8.15807 77.0125 8.15807C78.2074 8.15807 79.0446 9.18902 79.0446 10.6924C79.0446 12.2468 78.1148 13.3807 76.8494 13.3807ZM76.6254 9.03188C75.9911 9.03188 75.4105 9.58823 75.4105 10.3612V11.2371C75.4105 11.9272 75.9322 12.4942 76.6054 12.4942C77.4311 12.4942 77.9234 11.8147 77.9234 10.7328C77.9223 9.72307 77.4111 9.03188 76.6254 9.03188Z" fill="#2F3136"/>
<path fill-rule="evenodd" clip-rule="evenodd" d="M80.676 5.9624H81.7773V13.2671H80.676V5.9624Z" fill="#2F3136"/>
<path fill-rule="evenodd" clip-rule="evenodd" d="M87.777 11.0312H84.4679C84.49 11.9793 85.1106 12.5145 86.0289 12.5145C86.5201 12.5145 86.9692 12.4316 87.3668 12.2777L87.5383 13.0506C87.0691 13.2566 86.518 13.3596 85.8753 13.3596C84.3228 13.3596 83.4045 12.3701 83.4045 10.8359C83.4045 9.30059 84.3449 8.14648 85.7522 8.14648C87.0165 8.14648 87.8149 9.09461 87.8149 10.5269C87.818 10.7223 87.8086 10.8974 87.777 11.0312ZM86.7673 10.2381C86.7673 9.46516 86.3781 8.91943 85.6734 8.91943C85.0401 8.91943 84.5416 9.47578 84.4679 10.2381H86.7673Z" fill="#2F3136"/>
<path fill-rule="evenodd" clip-rule="evenodd" d="M94.4583 13.3807C93.0089 13.3807 92.0696 12.2882 92.0696 10.805C92.0696 9.25906 93.0289 8.15698 94.5414 8.15698C95.9687 8.15698 96.9301 9.19748 96.9301 10.7232C96.9301 12.2882 95.9393 13.3807 94.4583 13.3807ZM94.5004 8.97027C93.7041 8.97027 93.194 9.72198 93.194 10.7731C93.194 11.804 93.7147 12.5558 94.4899 12.5558C95.2651 12.5558 95.7857 11.752 95.7857 10.7519C95.7857 9.7326 95.2756 8.97027 94.5004 8.97027Z" fill="#2F3136"/>
<path fill-rule="evenodd" clip-rule="evenodd" d="M102.856 13.2672H101.756V10.392C101.756 9.50653 101.418 9.06273 100.755 9.06273C100.102 9.06273 99.6513 9.62969 99.6513 10.289V13.2672H98.5511V9.69127C98.5511 9.24853 98.5385 8.77394 98.509 8.25899H99.4788L99.5304 9.03194H99.5619C99.8554 8.49682 100.459 8.15601 101.133 8.15601C102.173 8.15601 102.856 8.95974 102.856 10.2678V13.2672Z" fill="#2F3136"/>
<path fill-rule="evenodd" clip-rule="evenodd" d="M110.069 9.09451H108.856V11.5259C108.856 12.1449 109.069 12.4538 109.498 12.4538C109.691 12.4538 109.856 12.4326 109.988 12.4018L110.018 13.247C109.804 13.3298 109.516 13.3712 109.162 13.3712C108.292 13.3712 107.775 12.887 107.775 11.6193V9.09451H107.052V8.25999H107.775V7.34265L108.856 7.01245V8.25893H110.069V9.09451Z" fill="#2F3136"/>
<path fill-rule="evenodd" clip-rule="evenodd" d="M115.906 13.2671H114.803V10.4132C114.803 9.51709 114.465 9.06373 113.803 9.06373C113.232 9.06373 112.702 9.45551 112.702 10.2486V13.2671H111.598V5.9624H112.702V8.9703H112.723C113.069 8.42457 113.57 8.15595 114.213 8.15595C115.264 8.15595 115.906 8.97985 115.906 10.289V13.2671Z" fill="#2F3136"/>
<path fill-rule="evenodd" clip-rule="evenodd" d="M121.539 11.0312H118.231C118.252 11.9793 118.873 12.5145 119.792 12.5145C120.284 12.5145 120.732 12.4316 121.128 12.2777L121.3 13.0506C120.832 13.2566 120.28 13.3596 119.636 13.3596C118.085 13.3596 117.167 12.3701 117.167 10.8359C117.167 9.30059 118.106 8.14648 119.513 8.14648C120.779 8.14648 121.576 9.09461 121.576 10.5269C121.58 10.7223 121.57 10.8974 121.539 11.0312ZM120.528 10.2381C120.528 9.46516 120.141 8.91943 119.436 8.91943C118.803 8.91943 118.304 9.47578 118.231 10.2381H120.528Z" fill="#2F3136"/>
</g>
<defs>
<clipPath id="clip0">
<rect width="140" height="41.5075" fill="white"/>
</clipPath>
</defs>
</svg>
