<svg xmlns="http://www.w3.org/2000/svg" viewBox="0 0 140 140"><defs><style>.cls-1{fill:#ff5252;}</style></defs><title>Horizontal Red</title><g id="Layer_2" data-name="Layer 2"><g id="Layer_1-2" data-name="Layer 1"><path class="cls-1" d="M70,0a70,70,0,1,0,70,70A70.08,70.08,0,0,0,70,0Zm5.56,85.13L96.3,74.55V86.9L75.56,97.48ZM96.3,62.36,75.56,72.94V60.46L96.3,49.88ZM64.57,72.94,43.7,62.29V49.88L64.57,60.52ZM43.7,74.48,64.57,85.13V97.55L43.7,86.9Zm31.75,54.4a5,5,0,0,0,.11-1.1V109.67L104.2,95.06a5.42,5.42,0,0,0,3-4.83V41a5.43,5.43,0,0,0-7.9-4.84l-23.7,12.1V30A5.43,5.43,0,0,0,64.7,30V48.4l-24-12.23A5.43,5.43,0,0,0,32.84,41V90.23a5.42,5.42,0,0,0,3,4.83l28.9,14.75v18a5.13,5.13,0,0,0,.12,1.12,59.12,59.12,0,1,1,10.63,0Z"/></g></g></svg>
