<svg id="Layer_1" data-name="Layer 1" xmlns="http://www.w3.org/2000/svg" viewBox="0 0 88.7 77.61"><defs><style>.cls-1{fill:#f05656;}</style></defs><g id="Group_34" data-name="Group 34"><g id="Group_33" data-name="Group 33"><g id="Group_32" data-name="Group 32"><path id="Path_25" data-name="Path 25" class="cls-1" d="M87.57,88.31H4.42a2.78,2.78,0,0,1-2.77-2.77V57.82A2.79,2.79,0,0,1,3,55.44c.59-.35,14.84-8.71,43-8.71s42.41,8.36,43,8.71a2.77,2.77,0,0,1,1.35,2.38V85.54a2.78,2.78,0,0,1-2.77,2.77ZM7.18,82.77H84.79V59.5c-4-1.93-17.05-7.23-38.8-7.23S11.22,57.56,7.19,59.5V82.77Z" transform="translate(-1.65 -10.69)"/><path id="Path_26" data-name="Path 26" class="cls-1" d="M10,88.31a2.78,2.78,0,0,1-2.78-2.76,2.84,2.84,0,0,1,.3-1.25L24.81,49.65a2.77,2.77,0,0,1,5,2.47L12.44,86.77A2.76,2.76,0,0,1,10,88.31Z" transform="translate(-1.65 -10.69)"/><path id="Path_27" data-name="Path 27" class="cls-1" d="M32.13,88.31a3.57,3.57,0,0,1-.46,0,2.75,2.75,0,0,1-2.27-3.18h0l6-35.8a2.77,2.77,0,0,1,5.47.92L34.86,86A2.76,2.76,0,0,1,32.13,88.31Z" transform="translate(-1.65 -10.69)"/><path id="Path_28" data-name="Path 28" class="cls-1" d="M82,88.31a2.79,2.79,0,0,1-2.49-1.54L62.21,52.12a2.77,2.77,0,1,1,5-2.48L84.5,84.29A2.77,2.77,0,0,1,83.28,88a2.91,2.91,0,0,1-1.25.3Z" transform="translate(-1.65 -10.69)"/><path id="Path_29" data-name="Path 29" class="cls-1" d="M59.84,88.31A2.79,2.79,0,0,1,57.11,86l-6-35.79a2.77,2.77,0,0,1,5.47-.92l6,35.8a2.77,2.77,0,0,1-2.27,3.19h0A2.38,2.38,0,0,1,59.84,88.31Z" transform="translate(-1.65 -10.69)"/><path id="Path_30" data-name="Path 30" class="cls-1" d="M68,32.87A11.09,11.09,0,1,1,78.76,21.45c0,.11,0,.22,0,.34A10.94,10.94,0,0,1,68,32.87Zm0-16.62a5.55,5.55,0,1,0,5.2,5.88c0-.11,0-.23,0-.34A5.38,5.38,0,0,0,68,16.25Z" transform="translate(-1.65 -10.69)"/></g></g></g></svg>