<svg width="40" height="41" viewBox="0 0 40 41" fill="none" xmlns="http://www.w3.org/2000/svg">
<path d="M33.7533 16V9.74833C33.7533 8.36762 32.634 7.24833 31.2533 7.24833H24.5867" stroke="#FF5252" stroke-width="2.5" stroke-linecap="round" stroke-linejoin="round"/>
<path d="M10.42 7.24833H3.7533C2.37258 7.24833 1.2533 8.36762 1.2533 9.74833V37.2483C1.2533 38.629 2.37258 39.7483 3.7533 39.7483H17.5" stroke="#FF5252" stroke-width="2.5" stroke-linecap="round" stroke-linejoin="round"/>
<path fill-rule="evenodd" clip-rule="evenodd" d="M24.0383 8.89333C23.8679 9.40325 23.3909 9.74741 22.8533 9.74833H12.155C11.6167 9.74813 11.1389 9.40384 10.9683 8.89333L9.30165 3.89333C9.17386 3.51202 9.2376 3.09249 9.47288 2.76634C9.70816 2.44018 10.0862 2.24736 10.4883 2.24833H24.52C24.9218 2.24789 25.2993 2.44094 25.5342 2.76702C25.7691 3.09309 25.8327 3.5123 25.705 3.89333L24.0383 8.89333Z" stroke="#FF5252" stroke-width="2.5" stroke-linecap="round" stroke-linejoin="round"/>
<path d="M13.7533 34.7483H7.5C6.80964 34.7483 6.25 34.1887 6.25 33.4983V12.2483" stroke="#FF5252" stroke-width="2.5" stroke-linecap="round" stroke-linejoin="round"/>
<path d="M28.7533 12.2483V14.7483" stroke="#FF5252" stroke-width="2.5" stroke-linecap="round" stroke-linejoin="round"/>
<path fill-rule="evenodd" clip-rule="evenodd" d="M28.75 39.7483C34.2728 39.7483 38.75 35.2712 38.75 29.7483C38.75 24.2255 34.2728 19.7483 28.75 19.7483C23.2272 19.7483 18.75 24.2255 18.75 29.7483C18.75 35.2712 23.2272 39.7483 28.75 39.7483Z" stroke="#FF5252" stroke-width="2.5" stroke-linecap="round" stroke-linejoin="round"/>
<path d="M32.2855 26.2128L25.2145 33.2839" stroke="#FF5252" stroke-width="2.5" stroke-linecap="round" stroke-linejoin="round"/>
<path d="M25.2145 26.2128L32.2855 33.2839" stroke="#FF5252" stroke-width="2.5" stroke-linecap="round" stroke-linejoin="round"/>
<path d="M11.2533 17.2483H18.7533" stroke="#FF5252" stroke-width="2.5" stroke-linecap="round" stroke-linejoin="round"/>
<path d="M11.2533 24.7483H13.7533" stroke="#FF5252" stroke-width="2.5" stroke-linecap="round" stroke-linejoin="round"/>
</svg>
